<svg class="svg-icon" style="width: 1em; height: 1em;vertical-align: middle;fill: currentColor;overflow: hidden;" viewBox="0 0 1024 1024" version="1.1" xmlns="http://www.w3.org/2000/svg"><path d="M256.300304 517.158156l0 155.027325c21.58653-20.950593 67.727298-35.400497 121.287331-35.400497 72.991444 0 132.31024 26.921336 134.253381 60.378692l0.388628 0c1.943141-33.457356 61.155948-60.378692 134.324041-60.378692 53.560033 0 99.559481 14.449903 121.252001 35.400497l0-155.027325-255.682031 104.470328L256.300304 517.158156zM232.523323 574.710461c0-21.69252-15.898427-39.498758-36.672371-42.713773l0-60.131383 316.096053 129.201214 389.370135-159.054927-389.334805-159.125587L122.68286 442.011593l59.707425 24.306928 0 65.572178c-20.773944 3.250345-36.743031 21.056583-36.743031 42.749103 0 16.993652 9.963014 31.690864 24.306928 38.827491-9.786365 27.027325-16.357715 74.051339-16.357715 127.646702l70.906983 0c0-53.701352-6.53602-100.760696-16.357715-127.646702C222.630969 606.436655 232.523323 591.739442 232.523323 574.710461z"  /></svg>